PathFileType	4	(X/Y/Z)	/home/abdul/Documents/myosuite/MHH/MHH/IK/original/output/S5_12_1.trc
DataRate	CameraRate	NumFrames	NumMarkers	Units	OrigDataRate	OrigDataStartFrame	OrigNumFrames
200.0	200.0	51	3	mm	200.0	634	1267
Frame#	Time	V_Shoulder			V_Elbow			V_Wrist		
		X1	Y1	Z1	X2	Y2	Z2	X3	Y3	Z3

634	3.165	7.2511829080609616	759.0963761117922	266.04387320216097	-80.70978246992902	491.0537603364327	157.86289607330937	51.13475542625658	587.8479642565392	332.80444391471843
635	3.17	7.246647611093063	759.0481344544796	266.03594114940165	-80.73267679674275	491.16896834923546	157.2783707200938	51.06984664244137	587.6269077929164	332.59076290217644
636	3.175	7.2409002359542995	758.998580298628	266.02707167290407	-80.76750706173753	491.2966599559293	156.66970660623576	51.00142045402515	587.386764151747	332.36529541114834
637	3.18	7.23394037197692	758.9478090471245	266.0172585063893	-80.81486007998888	491.437523871964	156.03666229809383	50.92923180484487	587.1267498504401	332.1275451307371
638	3.185	7.225769291307508	758.8959185532922	266.0064967072713	-80.87531956649106	491.59225106173255	155.37902339814232	50.853023268725856	586.8460702421373	331.87700307567974
639	3.19	7.216390018654565	758.8430088297044	265.9947827456894	-80.94946430655347	491.7615326847276	154.69660430006903	50.77252517889799	586.5439206845776	331.61314839862166
640	3.195	7.20580739895733	758.789181742969	265.9821145912941	-81.03786630984571	491.9460579812878	153.98924991230467	50.68745579363268	586.2194877659003	331.3354492509539
641	3.2	7.194028162633685	758.7345406952849	265.96849179738086	-81.1410889544513	492.14651210423483	153.25683734199848	50.59752149838884	585.871950585545	331.04336369068506
642	3.205	7.181060988060781	758.679190293626	265.95391558196394	-81.2596851273553	492.3635739030706	152.49927753133971	50.50241704463106	585.5004820883017	330.7363406356536
643	3.21	7.166916560938977	758.6232360074872	265.9383889053879	-81.39419536783258	492.597913667748	151.71651683804777	50.40182582535908	585.1042504494573	330.41382086021844
644	3.215	7.151607630187828	758.5667838161743	265.92191654407344	-81.54514602021882	492.85019083934367	150.90853855181746	50.29542018726649	584.6824205089019	330.0752380333938
645	3.22	7.135149060022364	758.5099398466872	265.9045051600028	-81.71304740253913	493.1210516952565	150.0753643385113	50.18286177932831	584.2341552519737	329.7200197962254
646	3.225	7.117557877858684	758.4528100032963	265.8861633655535	-81.8983919974385	493.411127016813	149.21705560394156	50.063801937505076	583.7586173347385	329.3475888760319
647	3.23	7.098853317700169	758.3954995899672	265.8669017832981	-82.10165267180649	493.7210297473963	148.33371476918222	49.9378821051439	583.2549706513394	328.95736423496425
648	3.235	7.079056858659243	758.3381129268274	265.846733100399	-82.32328093141649	494.0513526494099	147.4254864494961	49.80473428855855	582.722381940975	328.5487622501655
649	3.24	7.058192258274885	758.2807529619263	265.82567211723466	-82.56370521680657	494.4026659685569	146.49255852915724	49.663981547178885	582.1600224320041	328.12119792264787
650	3.245	7.036285580292869	758.2235208795655	265.8037357899111	-82.82332924651955	494.7755151140443	145.5351631246937	49.51523851757798	581.5670695206101	327.67408611183896
651	3.25	7.013365216584141	758.1665157065223	265.78094326632345	-83.10253041368995	495.1704183634174	144.5535774293719	49.35811197061187	580.9427084813913	327.20684279259615
652	3.255	6.989461902886788	758.1098339175129	265.75731591545104	-83.40165824181975	495.5878646007908	143.54812443208868	49.19220140084316	580.2861342071765	326.7188863313355
653	3.26	6.9646087280688	758.0535690412762	265.7328773495867	-83.72103290542165	496.0283110972616	142.519173504234	49.017099647364674	579.5965529752949	326.209638777783
654	3.265	6.938841136622371	757.9978112686758	265.70765343921965	-84.06094382102903	496.4921813422799	141.46714084853153	48.83239354509432	578.8731842374534	325.67852716872875
655	3.27	6.912196924115605	757.9426470642387	265.68167232031345	-84.42164831387552	496.9798629346949	140.3924898043565	48.63766460557491	578.1152624302927	325.1249848400464
656	3.275	6.884716225344525	757.8881587825608	265.65496439374505	-84.80337036533533	497.4917055421117	139.29573100456685	48.432489726283634	577.3220388036071	324.5484527431406
657	3.28	6.856441494946936	757.8344242910233	265.6275623166913	-85.20629944598574	498.02801893706066	138.17742237946447	48.21644192743346	576.4927832631188	323.9483807619006
658	3.285	6.827417480260156	757.7815166002601	265.5995009857807	-85.63058943890893	498.5890711183242	137.0381690041216	47.989091115232696	575.6267862245918	323.3242290261716
659	3.29	6.7976911862267615	757.7295035038272	265.57081751185143	-86.07635765758667	499.1750865255641	135.87862278596427	47.75000487055666	574.7233604759683	322.6754692177084
660	3.295	6.767311832176414	757.6784472285095	265.5415511861882	-86.54368396246215	499.7862443551568	134.69948199019242	47.49874926197748	573.7818430440873	322.00158586454904
661	3.3	6.736330800337225	757.6284040967008	265.5117434381406	-87.03260997994566	500.4226769848777	133.50149060133307	47.234889682091335	572.8015970624228	321.3020776197468
662	3.305	6.7048015759573225	757.5794242022711	265.4814377840573	-87.54313842732525	501.0844685147691	132.285437519963	46.95799170607626	571.7820136361504	320.57645852041196
663	3.31	6.6727796789458935	757.531551101324	265.4506797675026	-88.07523254670951	501.77165343119384	131.05215559439702	46.667621971406945	570.7225137007125	319.8242592230639
664	3.315	6.640322586973096	757.4848215192192	265.4195168907592	-88.62881565077734	502.4842154007074	129.80252048791164	46.36334907764347	569.6225498699126	319.0450282113584
665	3.32	6.607489649999768	757.4392650752094	265.3879985376503	-89.20377078273897	503.22208619998446	128.53744938285587	46.04474450519742	568.4816082694238	318.2383329723481
666	3.325	6.574341996240708	757.3949040260092	265.3561758877577	-89.799940492524	503.98514478760967	127.25789952378841	45.71138355196108	567.2992103514474	317.40376113754894
667	3.33	6.54094242959924	757.3517530295741	265.32410182214227	-90.41712673080565	504.77321652308916	125.964866602565	45.36284628666045	566.0749146861165	316.5409215852284
668	3.335	6.507355318645939	757.3098189303322	265.2918308207143	-91.05509086204741	505.58607253795697	124.65938298907858	44.9987185177618	564.808318725084	315.6494455004887
669	3.34	6.473646477250413	757.2691005670564	265.25941885143817	-91.71355379731916	506.42342926335095	123.34251581212303	44.61859277672148	563.4990605325994	314.7289873899092
670	3.345	6.43988303701184	757.2295886045258	265.22692325159136	-92.392196247177	507.28494811790097	122.0153648956009	44.22206931432104	562.1468204792357	313.7792260477109
671	3.35	6.406133311671525	757.1912653900577	265.19440260133865	-93.09065909443407	508.17023535922766	120.67906055602525	43.8087571087726	560.7513228932952	312.7998654706346
672	3.355	6.372466653728675	757.1541048359431	265.16191658991653	-93.80854388617428	509.07884210178133	119.33476126797021	43.37827488421331	559.3123376648066	311.79063571896376
673	3.36	6.338953303518934	757.1180723287449	265.12952587476155	-94.54541344387457	510.0102645031652	117.98365120479664	42.93025213813266	557.8296817969065	310.7512937213783
674	3.365	6.305664231053683	757.0831246663523	265.09729193395265	-95.3007925900115	510.96394412048915	116.62693766261938	42.464330176192625	556.303220899309	309.68162402159624
675	3.37	6.272670970956472	757.0492100236164	265.06527691237125	-96.07416898903455	511.93926843768384	115.26584837608286	41.980163152808174	554.7328706184791	308.581439465037
676	3.375	6.240045450871171	757.0162679473028	265.03354346201934	-96.86499410009486	512.9355715640805	113.90162873507185	41.477419115755836	553.1185979990635	307.4505818240299
677	3.38	6.207859813754056	756.9842293810262	265.0021545769671	-97.67268423842985	513.952135103928	112.53553891199802	40.95578105297124	551.4604227710903	306.28892236038166
678	3.385	6.176186234499167	756.9530167207362	264.97117342343313	-98.49662174182174	514.9881891958715	111.16885090977138	40.4149479395839	549.7584185574234	305.09636232441414
679	3.39	6.145096731382382	756.9225439012334	264.9406631655321	-99.33615623807708	516.0429137207793	109.8028455409825	39.854635783120045	548.0127139959595	303.872833389877
680	3.395	6.1146629728447905	756.8927165141055	264.9106867872495	-100.19060600901825	517.1154396756422	108.4388093491875	39.27457866468339	546.2234937710849	302.61829802443526
681	3.4	6.084956080169731	756.8634319573617	264.8813069112318	-101.05925944603963	518.2048507106314	107.07803148349987	38.674529773800444	544.3909995489608	301.33274979571945
682	3.405	6.056046426640119	756.8345796169506	264.8525856150015	-101.94137659186532	519.3101848257477	105.72180053795103	38.05426243449333	542.5155308112912	300.0162136132071
683	3.41	6.028003433793294	756.8060410802287	264.8245842452293	-102.83619076275419	520.430436222851	104.37140136728152	37.4135711200195	540.5974455823375	298.66874590647706
684	3.415	6.0008953654192245	756.7776903813459	264.7973632307135	-103.74291024503641	521.5645573082315	103.02811189097089	36.75227245359659	538.6371610440924	297.29043474063633
